<?xml version="1.0" encoding="utf-8"?>
<!-- Generator: Adobe Illustrator 28.2.0, SVG Export Plug-In . SVG Version: 6.00 Build 0)  -->
<svg version="1.1" id="Layer_1" xmlns="http://www.w3.org/2000/svg" xmlns:xlink="http://www.w3.org/1999/xlink" x="0px" y="0px"
	 viewBox="0 0 800 300" style="enable-background:new 0 0 800 300;" xml:space="preserve">
<style type="text/css">
	.st0{fill:#929292;}
	.st1{fill:#56B776;}
</style>
<g>
	<polygon class="st0" points="327.12,211 342.09,211 342.09,205.26 327.12,205.26 327.12,198.67 344.24,198.67 344.24,192.75 
		320.53,192.75 320.53,224.14 344.56,224.14 344.56,218.22 327.12,218.22 	"/>
	<g>
		<g>
			<polygon class="st0" points="387.02,76.71 318.24,76.71 318.24,92.66 343.33,92.66 343.33,151.13 361.4,151.13 361.4,92.66 
				387.02,92.66 			"/>
			<path class="st0" d="M488.2,122.82c0.61-0.27,1.21-0.56,1.79-0.87c4-2.16,7.16-5.1,9.46-8.82c2.3-3.72,3.46-7.95,3.46-12.7
				c0-4.68-1.1-8.79-3.3-12.33c-2.2-3.54-5.28-6.33-9.25-8.35c-3.97-2.02-8.58-3.03-13.82-3.03h-37.31v74.42h17.22v-25.94h12.76
				l16.58,25.94h20.84L488.2,122.82z M483.61,106.58c-0.89,1.49-2.09,2.66-3.61,3.51c-1.53,0.85-3.28,1.27-5.26,1.27h-18.28V91.8
				h17.22c2.27,0,4.23,0.39,5.9,1.17c1.66,0.78,2.98,1.9,3.93,3.35c0.96,1.45,1.44,3.14,1.44,5.05
				C484.94,103.36,484.5,105.09,483.61,106.58z"/>
			<polygon class="st0" points="622.68,135.71 581.32,135.71 581.32,120.61 616.83,120.61 616.83,105.94 581.32,105.94 
				581.32,92.12 621.61,92.12 621.61,76.71 563.78,76.71 563.78,151.13 622.68,151.13 			"/>
			<polygon class="st0" points="701.62,135.71 701.62,120.61 737.13,120.61 737.13,105.94 701.62,105.94 701.62,92.12 741.91,92.12 
				741.91,76.71 684.08,76.71 684.08,151.13 742.97,151.13 742.97,135.71 			"/>
		</g>
		<polygon class="st0" points="405.58,192.75 397.51,192.75 389.75,203.58 381.5,192.75 373.07,192.75 385.24,208.07 372.85,224.14 
			380.92,224.14 389.15,213.09 397.6,224.14 406.07,224.14 393.61,208.55 		"/>
		<path class="st0" d="M441.31,201.2c0.94-0.85,2.03-1.51,3.25-1.97c1.22-0.46,2.5-0.69,3.81-0.69c1.25,0,2.41,0.16,3.48,0.49
			c1.06,0.33,2.05,0.77,2.96,1.32c0.91,0.55,1.75,1.2,2.53,1.95l4.08-4.98c-0.93-0.99-2.06-1.86-3.41-2.62
			c-1.34-0.76-2.82-1.36-4.44-1.79c-1.61-0.43-3.27-0.65-4.98-0.65c-2.39,0-4.64,0.4-6.75,1.21c-2.11,0.81-3.95,1.93-5.52,3.36
			s-2.8,3.13-3.68,5.09c-0.88,1.96-1.32,4.1-1.32,6.43c0,2.39,0.43,4.58,1.28,6.57c0.85,1.99,2.06,3.7,3.61,5.13
			c1.55,1.44,3.37,2.55,5.45,3.34c2.08,0.79,4.33,1.19,6.75,1.19c1.76,0,3.48-0.22,5.13-0.67c1.66-0.45,3.15-1.03,4.46-1.75
			c1.32-0.72,2.38-1.45,3.18-2.2l-3.27-5.29c-0.69,0.63-1.46,1.21-2.33,1.75c-0.87,0.54-1.84,0.99-2.91,1.35
			c-1.08,0.36-2.26,0.54-3.54,0.54c-1.52,0-2.94-0.23-4.26-0.69c-1.32-0.46-2.47-1.11-3.48-1.95c-1-0.84-1.79-1.87-2.35-3.09
			c-0.57-1.22-0.85-2.62-0.85-4.17c0-1.49,0.28-2.85,0.85-4.08C439.61,203.09,440.37,202.05,441.31,201.2z"/>
		<polygon class="st0" points="511.07,205.53 495.51,205.53 495.51,192.75 488.79,192.75 488.79,224.14 495.51,224.14 
			495.51,211.63 511.07,211.63 511.07,224.14 517.8,224.14 517.8,192.75 511.07,192.75 		"/>
		<path class="st0" d="M557.09,192.75l-13.58,31.39h6.73l2.75-6.41h14.19l2.73,6.41h7l-13.5-31.39H557.09z M555.3,212.34l2.6-6.05
			c0.27-0.66,0.54-1.31,0.81-1.97c0.27-0.66,0.53-1.32,0.78-1.99c0.23-0.61,0.44-1.22,0.65-1.84c0.2,0.57,0.4,1.14,0.61,1.73
			c0.25,0.72,0.51,1.42,0.76,2.11c0.25,0.69,0.5,1.3,0.74,1.84l2.64,6.19H555.3z"/>
		<path class="st0" d="M625.87,201.31c0,1.17,0.01,2.26,0.02,3.3c0.01,1.03,0.04,2.03,0.09,3c0.04,0.97,0.1,1.93,0.18,2.87
			c0.07,0.94,0.16,1.88,0.25,2.83c0.04,0.46,0.12,0.94,0.17,1.4l-18.6-21.96h-6.19v31.39h6.59v-11.3c0-0.81-0.01-1.58-0.04-2.31
			c-0.03-0.73-0.07-1.46-0.11-2.2c-0.04-0.73-0.11-1.49-0.2-2.26c-0.09-0.78-0.18-1.62-0.27-2.53c-0.03-0.34-0.07-0.72-0.1-1.09
			l18.53,21.69h6.28v-31.39h-6.59V201.31z"/>
		<path class="st0" d="M690.83,208.44c-0.04-0.45-0.08-0.87-0.11-1.25h-16.14v5.56h9.58c-0.04,0.7-0.24,1.38-0.61,2.02
			c-0.45,0.78-1.09,1.44-1.93,1.99c-0.84,0.55-1.81,0.98-2.91,1.28c-1.11,0.3-2.29,0.45-3.54,0.45c-1.52,0-2.95-0.23-4.28-0.7
			c-1.33-0.46-2.5-1.13-3.52-1.99c-1.02-0.87-1.82-1.93-2.4-3.18c-0.58-1.25-0.87-2.68-0.87-4.26c0-1.43,0.28-2.76,0.83-3.99
			c0.55-1.23,1.33-2.29,2.33-3.18c1-0.9,2.17-1.6,3.5-2.11c1.33-0.51,2.77-0.76,4.33-0.76c1.2,0,2.35,0.16,3.45,0.47
			c1.11,0.31,2.14,0.74,3.09,1.28c0.96,0.54,1.85,1.17,2.69,1.88l4.17-4.48c-0.87-0.96-1.98-1.82-3.34-2.6
			c-1.36-0.78-2.89-1.41-4.57-1.88c-1.69-0.48-3.51-0.72-5.45-0.72c-2.6,0-4.99,0.4-7.17,1.21c-2.18,0.81-4.09,1.94-5.72,3.39
			c-1.63,1.45-2.89,3.15-3.77,5.11c-0.88,1.96-1.32,4.09-1.32,6.39c0,2.45,0.43,4.68,1.3,6.68c0.87,2,2.08,3.71,3.63,5.13
			c1.55,1.42,3.39,2.51,5.52,3.27c2.12,0.76,4.44,1.14,6.95,1.14c2.39,0,4.59-0.32,6.59-0.96c2-0.64,3.73-1.56,5.18-2.76
			c1.45-1.19,2.59-2.66,3.41-4.39c0.82-1.73,1.23-3.68,1.23-5.83c0-0.21-0.01-0.52-0.02-0.92
			C690.91,209.32,690.88,208.89,690.83,208.44z"/>
		<polygon class="st0" points="725.53,211 740.51,211 740.51,205.26 725.53,205.26 725.53,198.67 742.66,198.67 742.66,192.75 
			718.94,192.75 718.94,224.14 742.97,224.14 742.97,218.22 725.53,218.22 		"/>
	</g>
	<path class="st1" d="M105.1,132.4v28.13h34.89v28.23v88.05c4.61,0.59,9.3,0.89,14.06,0.89c4.76,0,9.46-0.31,14.06-0.89v-88.05
		v-28.23H203V132.4H105.1z"/>
	<g>
		<path class="st1" d="M265.14,143.02c0-61.25-49.83-111.08-111.08-111.08S42.97,81.77,42.97,143.02c0,45.75,28.4,87,70.93,103.54
			v-41.95c-20.56-13.49-33.43-36.77-33.43-61.6c0-40.57,33.01-73.58,73.58-73.58c40.57,0,73.58,33.01,73.58,73.58
			c0,24.83-12.88,48.11-33.43,61.6v41.94C236.74,230.02,265.14,188.77,265.14,143.02z"/>
	</g>
</g>
</svg>
